<?xml version="1.0" encoding="UTF-8"?>
<svg xmlns="http://www.w3.org/2000/svg" viewBox="0 0 997 775" width="997" height="775" font-family="-apple-system,Segoe UI,Roboto,Helvetica,Arial,sans-serif">
<rect x="0" y="0" width="997" height="775" fill="#ffffff"/>
<path d="M 513.8 397.5 Q 513.8 245.2 513.8 59.0" fill="none" stroke="#cbd5e1" stroke-width="1.5"/>
<path d="M 513.8 397.5 Q 611.7 280.8 731.3 138.2" fill="none" stroke="#cbd5e1" stroke-width="1.5"/>
<path d="M 513.8 397.5 Q 663.8 371.0 847.1 338.7" fill="none" stroke="#cbd5e1" stroke-width="1.5"/>
<path d="M 513.8 397.5 Q 645.7 473.7 806.9 566.7" fill="none" stroke="#cbd5e1" stroke-width="1.5"/>
<path d="M 513.8 397.5 Q 565.9 540.6 629.5 715.6" fill="none" stroke="#cbd5e1" stroke-width="1.5"/>
<path d="M 513.8 397.5 Q 461.7 540.6 398.0 715.6" fill="none" stroke="#cbd5e1" stroke-width="1.5"/>
<path d="M 513.8 397.5 Q 381.8 473.7 220.6 566.7" fill="none" stroke="#cbd5e1" stroke-width="1.5"/>
<path d="M 513.8 397.5 Q 363.8 371.0 180.4 338.7" fill="none" stroke="#cbd5e1" stroke-width="1.5"/>
<path d="M 513.8 397.5 Q 415.8 280.8 296.2 138.2" fill="none" stroke="#cbd5e1" stroke-width="1.5"/>
<rect x="404.8" y="370.5" width="218.0" height="54.0" rx="27.0" fill="#1f2937" stroke="#1f2937" stroke-width="1.5"/>
<text x="513.8" y="404.5" text-anchor="middle" font-size="20" font-weight="700" fill="#ffffff">La mémoire en C</text>
<rect x="460.3" y="44.0" width="106.9" height="30.0" rx="15.0" fill="#d1495b" stroke="#d1495b" stroke-width="1.5"/>
<text x="513.8" y="63.5" text-anchor="middle" font-size="13" font-weight="500" fill="#ffffff">Pile vs tas</text>
<rect x="579.8" y="123.2" width="303.0" height="30.0" rx="15.0" fill="#00798c" stroke="#00798c" stroke-width="1.5"/>
<text x="731.3" y="142.7" text-anchor="middle" font-size="13" font-weight="500" fill="#ffffff">`malloc`, `calloc`, `realloc`, `free`</text>
<rect x="740.9" y="323.7" width="212.5" height="30.0" rx="15.0" fill="#edae49" stroke="#edae49" stroke-width="1.5"/>
<text x="847.1" y="343.3" text-anchor="middle" font-size="13" font-weight="500" fill="#ffffff">La garde anti-débordement</text>
<rect x="662.9" y="551.7" width="287.9" height="30.0" rx="15.0" fill="#2e4057" stroke="#2e4057" stroke-width="1.5"/>
<text x="806.9" y="571.3" text-anchor="middle" font-size="13" font-weight="500" fill="#ffffff">Fuites, use-after-free, double free</text>
<rect x="515.7" y="700.6" width="227.6" height="30.0" rx="15.0" fill="#6a4c93" stroke="#6a4c93" stroke-width="1.5"/>
<text x="629.5" y="720.1" text-anchor="middle" font-size="13" font-weight="500" fill="#ffffff">Propriété et copie profonde</text>
<rect x="276.7" y="700.6" width="242.7" height="30.0" rx="15.0" fill="#3d9970" stroke="#3d9970" stroke-width="1.5"/>
<text x="398.0" y="720.1" text-anchor="middle" font-size="13" font-weight="500" fill="#ffffff">Tableau dynamique qui grandit</text>
<rect x="144.5" y="551.7" width="152.2" height="30.0" rx="15.0" fill="#e07a5f" stroke="#e07a5f" stroke-width="1.5"/>
<text x="220.6" y="571.3" text-anchor="middle" font-size="13" font-weight="500" fill="#ffffff">Matrice dynamique</text>
<rect x="44.0" y="323.7" width="272.8" height="30.0" rx="15.0" fill="#457b9d" stroke="#457b9d" stroke-width="1.5"/>
<text x="180.4" y="343.3" text-anchor="middle" font-size="13" font-weight="500" fill="#ffffff">Libérer une structure qui possède</text>
<rect x="246.5" y="123.2" width="99.4" height="30.0" rx="15.0" fill="#8d6a9f" stroke="#8d6a9f" stroke-width="1.5"/>
<text x="296.2" y="142.7" text-anchor="middle" font-size="13" font-weight="500" fill="#ffffff">Le réflexe</text>
</svg>
