<?xml version="1.0" encoding="UTF-8"?>
<svg xmlns="http://www.w3.org/2000/svg" viewBox="0 0 1012 752" width="1012" height="752" font-family="-apple-system,Segoe UI,Roboto,Helvetica,Arial,sans-serif">
<rect x="0" y="0" width="1012" height="752" fill="#ffffff"/>
<path d="M 517.4 385.9 Q 517.4 238.8 517.4 59.0" fill="none" stroke="#cbd5e1" stroke-width="1.5"/>
<path d="M 517.4 385.9 Q 612.0 273.2 727.5 135.5" fill="none" stroke="#cbd5e1" stroke-width="1.5"/>
<path d="M 517.4 385.9 Q 662.3 360.3 839.3 329.1" fill="none" stroke="#cbd5e1" stroke-width="1.5"/>
<path d="M 517.4 385.9 Q 644.8 459.4 800.5 549.3" fill="none" stroke="#cbd5e1" stroke-width="1.5"/>
<path d="M 517.4 385.9 Q 567.7 524.1 629.2 693.1" fill="none" stroke="#cbd5e1" stroke-width="1.5"/>
<path d="M 517.4 385.9 Q 467.1 524.1 405.6 693.1" fill="none" stroke="#cbd5e1" stroke-width="1.5"/>
<path d="M 517.4 385.9 Q 390.0 459.4 234.3 549.3" fill="none" stroke="#cbd5e1" stroke-width="1.5"/>
<path d="M 517.4 385.9 Q 372.5 360.3 195.5 329.1" fill="none" stroke="#cbd5e1" stroke-width="1.5"/>
<path d="M 517.4 385.9 Q 422.9 273.2 307.3 135.5" fill="none" stroke="#cbd5e1" stroke-width="1.5"/>
<rect x="420.0" y="358.9" width="194.8" height="54.0" rx="27.0" fill="#1f2937" stroke="#1f2937" stroke-width="1.5"/>
<text x="517.4" y="392.9" text-anchor="middle" font-size="20" font-weight="700" fill="#ffffff">Les tris en C</text>
<rect x="463.9" y="44.0" width="106.9" height="30.0" rx="15.0" fill="#d1495b" stroke="#d1495b" stroke-width="1.5"/>
<text x="517.4" y="63.5" text-anchor="middle" font-size="13" font-weight="500" fill="#ffffff">Vocabulaire</text>
<rect x="651.4" y="120.5" width="152.2" height="30.0" rx="15.0" fill="#00798c" stroke="#00798c" stroke-width="1.5"/>
<text x="727.5" y="140.0" text-anchor="middle" font-size="13" font-weight="500" fill="#ffffff">Tri par insertion</text>
<rect x="710.5" y="314.1" width="257.7" height="30.0" rx="15.0" fill="#edae49" stroke="#edae49" stroke-width="1.5"/>
<text x="839.3" y="333.7" text-anchor="middle" font-size="13" font-weight="500" fill="#ffffff">Tri par fusion (diviser/régner)</text>
<rect x="664.1" y="534.3" width="272.8" height="30.0" rx="15.0" fill="#2e4057" stroke="#2e4057" stroke-width="1.5"/>
<text x="800.5" y="553.9" text-anchor="middle" font-size="13" font-weight="500" fill="#ffffff">Tri rapide et partition de Lomuto</text>
<rect x="556.9" y="678.1" width="144.6" height="30.0" rx="15.0" fill="#6a4c93" stroke="#6a4c93" stroke-width="1.5"/>
<text x="629.2" y="697.6" text-anchor="middle" font-size="13" font-weight="500" fill="#ffffff">Tri par comptage</text>
<rect x="363.5" y="678.1" width="84.3" height="30.0" rx="15.0" fill="#3d9970" stroke="#3d9970" stroke-width="1.5"/>
<text x="405.6" y="697.6" text-anchor="middle" font-size="13" font-weight="500" fill="#ffffff">Comparer</text>
<rect x="128.1" y="534.3" width="212.5" height="30.0" rx="15.0" fill="#e07a5f" stroke="#e07a5f" stroke-width="1.5"/>
<text x="234.3" y="553.9" text-anchor="middle" font-size="13" font-weight="500" fill="#ffffff">`qsort` et le comparateur</text>
<rect x="44.0" y="314.1" width="303.0" height="30.0" rx="15.0" fill="#457b9d" stroke="#457b9d" stroke-width="1.5"/>
<text x="195.5" y="333.7" text-anchor="middle" font-size="13" font-weight="500" fill="#ffffff">Recherche binaire sur un tableau trié</text>
<rect x="257.6" y="120.5" width="99.4" height="30.0" rx="15.0" fill="#8d6a9f" stroke="#8d6a9f" stroke-width="1.5"/>
<text x="307.3" y="140.0" text-anchor="middle" font-size="13" font-weight="500" fill="#ffffff">Le réflexe</text>
</svg>
