<?xml version="1.0" encoding="UTF-8"?>
<svg xmlns="http://www.w3.org/2000/svg" viewBox="0 0 1154 935" width="1154" height="935" font-family="-apple-system,Segoe UI,Roboto,Helvetica,Arial,sans-serif">
<rect x="0" y="0" width="1154" height="935" fill="#ffffff"/>
<path d="M 576.9 488.8 Q 576.9 295.4 576.9 59.0" fill="none" stroke="#cbd5e1" stroke-width="1.5"/>
<path d="M 576.9 488.8 Q 728.1 368.2 912.9 220.8" fill="none" stroke="#cbd5e1" stroke-width="1.5"/>
<path d="M 576.9 488.8 Q 765.4 531.9 995.9 584.5" fill="none" stroke="#cbd5e1" stroke-width="1.5"/>
<path d="M 576.9 488.8 Q 660.8 663.1 763.4 876.1" fill="none" stroke="#cbd5e1" stroke-width="1.5"/>
<path d="M 576.9 488.8 Q 492.9 663.1 390.4 876.1" fill="none" stroke="#cbd5e1" stroke-width="1.5"/>
<path d="M 576.9 488.8 Q 388.3 531.9 157.8 584.5" fill="none" stroke="#cbd5e1" stroke-width="1.5"/>
<path d="M 576.9 488.8 Q 425.6 368.2 240.8 220.8" fill="none" stroke="#cbd5e1" stroke-width="1.5"/>
<rect x="357.7" y="461.8" width="438.4" height="54.0" rx="27.0" fill="#1f2937" stroke="#1f2937" stroke-width="1.5"/>
<text x="576.9" y="495.8" text-anchor="middle" font-size="20" font-weight="700" fill="#ffffff">Compiling, running, reading errors</text>
<rect x="444.2" y="44.0" width="265.3" height="30.0" rx="15.0" fill="#d1495b" stroke="#d1495b" stroke-width="1.5"/>
<text x="576.9" y="63.5" text-anchor="middle" font-size="13" font-weight="500" fill="#ffffff">The cycle: edit, save, run again</text>
<rect x="810.4" y="205.8" width="205.0" height="30.0" rx="15.0" fill="#00798c" stroke="#00798c" stroke-width="1.5"/>
<text x="912.9" y="225.4" text-anchor="middle" font-size="13" font-weight="500" fill="#ffffff">Reading an error message</text>
<rect x="882.1" y="569.5" width="227.6" height="30.0" rx="15.0" fill="#edae49" stroke="#edae49" stroke-width="1.5"/>
<text x="995.9" y="589.0" text-anchor="middle" font-size="13" font-weight="500" fill="#ffffff">The `// I AM NOT DONE` line</text>
<rect x="642.0" y="861.1" width="242.7" height="30.0" rx="15.0" fill="#2e4057" stroke="#2e4057" stroke-width="1.5"/>
<text x="763.4" y="880.7" text-anchor="middle" font-size="13" font-weight="500" fill="#ffffff">The harness: `CHECK` and `OK`</text>
<rect x="306.7" y="861.1" width="167.3" height="30.0" rx="15.0" fill="#6a4c93" stroke="#6a4c93" stroke-width="1.5"/>
<text x="390.4" y="880.7" text-anchor="middle" font-size="13" font-weight="500" fill="#ffffff">The `./clings` flow</text>
<rect x="44.0" y="569.5" width="227.6" height="30.0" rx="15.0" fill="#3d9970" stroke="#3d9970" stroke-width="1.5"/>
<text x="157.8" y="589.0" text-anchor="middle" font-size="13" font-weight="500" fill="#ffffff">What ASan and UBSan are for</text>
<rect x="183.6" y="205.8" width="114.5" height="30.0" rx="15.0" fill="#e07a5f" stroke="#e07a5f" stroke-width="1.5"/>
<text x="240.8" y="225.4" text-anchor="middle" font-size="13" font-weight="500" fill="#ffffff">The takeaway</text>
</svg>
