<?xml version="1.0" encoding="UTF-8"?>
<svg xmlns="http://www.w3.org/2000/svg" viewBox="0 0 801 682" width="801" height="682" font-family="-apple-system,Segoe UI,Roboto,Helvetica,Arial,sans-serif">
<rect x="0" y="0" width="801" height="682" fill="#ffffff"/>
<path d="M 398.2 349.6 Q 398.2 218.9 398.2 59.0" fill="none" stroke="#cbd5e1" stroke-width="1.5"/>
<path d="M 398.2 349.6 Q 482.3 249.5 585.0 127.0" fill="none" stroke="#cbd5e1" stroke-width="1.5"/>
<path d="M 398.2 349.6 Q 527.0 326.9 684.4 299.2" fill="none" stroke="#cbd5e1" stroke-width="1.5"/>
<path d="M 398.2 349.6 Q 511.4 415.0 649.9 495.0" fill="none" stroke="#cbd5e1" stroke-width="1.5"/>
<path d="M 398.2 349.6 Q 442.9 472.5 497.6 622.8" fill="none" stroke="#cbd5e1" stroke-width="1.5"/>
<path d="M 398.2 349.6 Q 353.4 472.5 298.8 622.8" fill="none" stroke="#cbd5e1" stroke-width="1.5"/>
<path d="M 398.2 349.6 Q 284.9 415.0 146.5 495.0" fill="none" stroke="#cbd5e1" stroke-width="1.5"/>
<path d="M 398.2 349.6 Q 269.4 326.9 112.0 299.2" fill="none" stroke="#cbd5e1" stroke-width="1.5"/>
<path d="M 398.2 349.6 Q 314.1 249.5 211.4 127.0" fill="none" stroke="#cbd5e1" stroke-width="1.5"/>
<rect x="318.2" y="322.6" width="160.0" height="54.0" rx="27.0" fill="#1f2937" stroke="#1f2937" stroke-width="1.5"/>
<text x="398.2" y="356.6" text-anchor="middle" font-size="20" font-weight="700" fill="#ffffff">Types in C</text>
<rect x="318.3" y="44.0" width="159.7" height="30.0" rx="15.0" fill="#d1495b" stroke="#d1495b" stroke-width="1.5"/>
<text x="398.2" y="63.5" text-anchor="middle" font-size="13" font-weight="500" fill="#ffffff">Integers and sizes</text>
<rect x="452.4" y="112.0" width="265.3" height="30.0" rx="15.0" fill="#00798c" stroke="#00798c" stroke-width="1.5"/>
<text x="585.0" y="131.5" text-anchor="middle" font-size="13" font-weight="500" fill="#ffffff">Signed, unsigned and conversions</text>
<rect x="612.1" y="284.2" width="144.6" height="30.0" rx="15.0" fill="#edae49" stroke="#edae49" stroke-width="1.5"/>
<text x="684.4" y="303.7" text-anchor="middle" font-size="13" font-weight="500" fill="#ffffff">Integer division</text>
<rect x="562.5" y="480.0" width="174.8" height="30.0" rx="15.0" fill="#2e4057" stroke="#2e4057" stroke-width="1.5"/>
<text x="649.9" y="499.5" text-anchor="middle" font-size="13" font-weight="500" fill="#ffffff">Modulo and negatives</text>
<rect x="429.0" y="607.8" width="137.1" height="30.0" rx="15.0" fill="#6a4c93" stroke="#6a4c93" stroke-width="1.5"/>
<text x="497.6" y="627.3" text-anchor="middle" font-size="13" font-weight="500" fill="#ffffff">Signed overflow</text>
<rect x="234.0" y="607.8" width="129.6" height="30.0" rx="15.0" fill="#3d9970" stroke="#3d9970" stroke-width="1.5"/>
<text x="298.8" y="627.3" text-anchor="middle" font-size="13" font-weight="500" fill="#ffffff">Floating point</text>
<rect x="44.0" y="480.0" width="205.0" height="30.0" rx="15.0" fill="#e07a5f" stroke="#e07a5f" stroke-width="1.5"/>
<text x="146.5" y="499.5" text-anchor="middle" font-size="13" font-weight="500" fill="#ffffff">Formatting with `printf`</text>
<rect x="74.0" y="284.2" width="76.0" height="30.0" rx="15.0" fill="#457b9d" stroke="#457b9d" stroke-width="1.5"/>
<text x="112.0" y="303.7" text-anchor="middle" font-size="13" font-weight="500" fill="#ffffff">`enum`</text>
<rect x="154.1" y="112.0" width="114.5" height="30.0" rx="15.0" fill="#8d6a9f" stroke="#8d6a9f" stroke-width="1.5"/>
<text x="211.4" y="131.5" text-anchor="middle" font-size="13" font-weight="500" fill="#ffffff">The takeaway</text>
</svg>
